<?xml version="1.0" encoding="UTF-8"?>
<svg width="24px" height="24px" viewBox="0 0 24 24" version="1.1" xmlns="http://www.w3.org/2000/svg" xmlns:xlink="http://www.w3.org/1999/xlink">
    <!-- Generator: sketchtool 51.2 (57519) - http://www.bohemiancoding.com/sketch -->
    <title>8A99345B-4026-41D5-A4DB-E97C64094C70</title>
    <desc>Created with sketchtool.</desc>
    <defs>
        <polygon id="path-1" points="8.78334307e-05 0.073088488 23.9929307 0.073088488 23.9929307 23.8919651 8.78334307e-05 23.8919651"></polygon>
    </defs>
    <g id="web-full" stroke="none" stroke-width="1" fill="none" fill-rule="evenodd">
        <g id="Menu-hamburguesa-/-Ver-todo" transform="translate(-311.000000, -163.000000)">
            <g id="Group-4" transform="translate(152.000000, 163.000000)">
                <g id="instagram" transform="translate(159.000000, 0.000000)">
                    <g id="Page-1">
                        <g id="Group-3">
                            <mask id="mask-2" fill="white">
                                <use xlink:href="#path-1"></use>
                            </mask>
                            <g id="Clip-2"></g>
                            <path d="M24.0000009,19.8207938 C24.0000009,22.0695598 22.1639237,23.8919832 19.8989189,23.8919832 L4.10134547,23.8919832 C1.836165,23.8919832 8.78334307e-05,22.0695598 8.78334307e-05,19.8207938 L8.78334307e-05,4.13769593 C8.78334307e-05,1.88910431 1.836165,0.0661576644 4.10134547,0.0661576644 L19.8989189,0.0661576644 C22.1639237,0.0661576644 24.0000009,1.88910431 24.0000009,4.13769593 L24.0000009,19.8207938 Z" id="Fill-1" fill="#FFFFFF" mask="url(#mask-2)"></path>
                        </g>
                    </g>
                    <g id="Group-10" transform="translate(3.600000, 4.800000)" fill="#00D0A2">
                        <path d="M5.13363677,1.10080111 C2.93199851,1.10080111 1.14092216,2.82911541 1.14092216,4.95346342 L1.14092216,10.3769604 C1.14092216,12.5014499 2.93199851,14.2297642 5.13363677,14.2297642 L11.5115694,14.2297642 C13.7130611,14.2297642 15.5041374,12.5014499 15.5041374,10.3769604 L15.5041374,4.95346342 C15.5041374,2.82911541 13.7130611,1.10080111 11.5115694,1.10080111 L5.13363677,1.10080111 Z M11.5115694,15.3308487 L5.13363679,15.3308487 C2.30310568,15.3308487 0,13.1084473 0,10.3769607 L0,4.95346354 C0,2.22211845 2.30310568,0 5.13363679,0 L11.5115694,0 C14.3419539,0 16.6450596,2.22211845 16.6450596,4.95346354 L16.6450596,10.3769607 C16.6450596,13.1084473 14.3419539,15.3308487 11.5115694,15.3308487 Z" id="Fill-13"></path>
                        <path d="M8.41106729,4.36916449 C6.54268457,4.36916449 5.02276719,5.84769976 5.02276719,7.66535379 C5.02276719,9.48258499 6.54268457,10.9612612 8.41106729,10.9612612 C10.2791602,10.9612612 11.7992225,9.48258499 11.7992225,7.66535379 C11.7992225,5.84769976 10.2791602,4.36916449 8.41106729,4.36916449 M8.41106701,12.0579709 C5.92095276,12.0579709 3.8956521,10.0873892 3.8956521,7.66535387 C3.8956521,5.2428957 5.92095276,3.27287779 8.41106701,3.27287779 C10.9008915,3.27287779 12.9264819,5.2428957 12.9264819,7.66535387 C12.9264819,10.0873892 10.9008915,12.0579709 8.41106701,12.0579709" id="Fill-15"></path>
                        <path d="M13.8118577,3.53148283 C13.8118577,4.05437984 13.3759952,4.47867508 12.8381705,4.47867508 C12.3001952,4.47867508 11.8640316,4.05437984 11.8640316,3.53148283 C11.8640316,3.00814629 12.3001952,2.58385105 12.8381705,2.58385105 C13.3759952,2.58385105 13.8118577,3.00814629 13.8118577,3.53148283" id="Fill-17"></path>
                    </g>
                </g>
            </g>
        </g>
    </g>
</svg>