<?xml version="1.0" encoding="UTF-8"?>
<svg width="24px" height="24px" viewBox="0 0 24 24" version="1.1" xmlns="http://www.w3.org/2000/svg" xmlns:xlink="http://www.w3.org/1999/xlink">
    <!-- Generator: sketchtool 51.2 (57519) - http://www.bohemiancoding.com/sketch -->
    <title>43E53B01-2909-44F8-8F34-F6B6A9B2EE1A</title>
    <desc>Created with sketchtool.</desc>
    <defs>
        <polygon id="path-1" points="8.78334307e-05 0.073088488 23.9929307 0.073088488 23.9929307 23.8919651 8.78334307e-05 23.8919651"></polygon>
    </defs>
    <g id="web-full" stroke="none" stroke-width="1" fill="none" fill-rule="evenodd">
        <g id="Menu-hamburguesa-/-Ver-todo" transform="translate(-282.000000, -163.000000)">
            <g id="Group-4" transform="translate(152.000000, 163.000000)">
                <g id="facebook" transform="translate(130.000000, 0.000000)">
                    <g id="Page-1">
                        <g id="Group-3">
                            <mask id="mask-2" fill="white">
                                <use xlink:href="#path-1"></use>
                            </mask>
                            <g id="Clip-2"></g>
                            <path d="M24.0000009,19.8207938 C24.0000009,22.0695598 22.1639237,23.8919832 19.8989189,23.8919832 L4.10134547,23.8919832 C1.836165,23.8919832 8.78334307e-05,22.0695598 8.78334307e-05,19.8207938 L8.78334307e-05,4.13769593 C8.78334307e-05,1.88910431 1.836165,0.0661576644 4.10134547,0.0661576644 L19.8989189,0.0661576644 C22.1639237,0.0661576644 24.0000009,1.88910431 24.0000009,4.13769593 L24.0000009,19.8207938 Z" id="Fill-1" fill="#FFFFFF" mask="url(#mask-2)"></path>
                        </g>
                        <path d="M16.4627603,23.9932886 L16.4627603,14.8484207 L19.5548485,14.8484207 L20.0177307,11.2845068 L16.4627603,11.2845068 L16.4627603,9.00901504 C16.4627603,7.97695188 16.7512053,7.27414442 18.2417387,7.27414442 L20.1428055,7.27327245 L20.1428055,4.08552616 C19.8137814,4.04245086 18.6856488,3.94531345 17.3723633,3.94531345 C14.6319602,3.94531345 12.7553111,5.60589227 12.7553111,8.65639055 L12.7553111,11.2845068 L9.65549355,11.2845068 L9.65549355,14.8484207 L12.7553111,14.8484207 L12.7553111,23.9932886 L16.4627603,23.9932886 Z" id="Fill-4" fill="#00D0A2"></path>
                    </g>
                </g>
            </g>
        </g>
    </g>
</svg>