<?xml version="1.0" encoding="UTF-8"?>
<svg width="24px" height="24px" viewBox="0 0 24 24" version="1.1" xmlns="http://www.w3.org/2000/svg" xmlns:xlink="http://www.w3.org/1999/xlink">
    <!-- Generator: sketchtool 51.2 (57519) - http://www.bohemiancoding.com/sketch -->
    <title>3A71D62C-CA4E-40A7-9270-941585C9B849-1291-000002AE82569238</title>
    <desc>Created with sketchtool.</desc>
    <defs>
        <polygon id="path-1" points="8.78334307e-05 0.073088488 23.9929307 0.073088488 23.9929307 23.8919651 8.78334307e-05 23.8919651"></polygon>
    </defs>
    <g id="web-full" stroke="none" stroke-width="1" fill="none" fill-rule="evenodd">
        <g id="HOME---menu-project049" transform="translate(-1166.000000, -186.000000)">
            <g id="cabecera-HOME">
                <g id="Group-2" transform="translate(978.000000, 186.000000)">
                    <g id="twitter" transform="translate(188.000000, 0.000000)">
                        <g id="Page-1">
                            <g id="Group-3">
                                <mask id="mask-2" fill="white">
                                    <use xlink:href="#path-1"></use>
                                </mask>
                                <g id="Clip-2"></g>
                                <path d="M24.0000009,19.8207938 C24.0000009,22.0695598 22.1639237,23.8919832 19.8989189,23.8919832 L4.10134547,23.8919832 C1.836165,23.8919832 8.78334307e-05,22.0695598 8.78334307e-05,19.8207938 L8.78334307e-05,4.13769593 C8.78334307e-05,1.88910431 1.836165,0.0661576644 4.10134547,0.0661576644 L19.8989189,0.0661576644 C22.1639237,0.0661576644 24.0000009,1.88910431 24.0000009,4.13769593 L24.0000009,19.8207938 Z" id="Fill-1" fill="#00D0A2" mask="url(#mask-2)"></path>
                            </g>
                        </g>
                        <path d="M19.254276,7.73547787 C18.9158483,7.82614425 18.6492528,7.81190345 18.6492528,7.81190345 L18.6601909,7.74971866 C18.9751099,7.50525173 19.7698355,6.75539491 19.8748085,6.4044385 C19.9203566,6.25285318 19.8664825,6.20063694 19.866156,6.19557355 L18.8511993,6.61330345 L18.0019465,6.98467166 C17.4156976,6.38323554 16.5284064,6 15.5363054,6 C13.770702,6 12.3392817,7.21189141 12.3392817,8.70796574 C12.3392817,8.98138895 12.3812382,9.48029137 12.4698857,9.72950523 C12.4698857,9.80798782 12.4731508,9.65070618 12.4698857,9.72950523 C11.3329775,9.69912488 9.87592616,9.2473753 8.57804847,8.60986251 C6.01837247,7.35303349 5.85805601,6.48292108 5.85805601,6.48292108 C5.45595881,6.89653698 5.24862489,8.26665942 5.65610951,9.34088984 C5.91715434,10.0285619 6.81391435,10.6458211 6.81391435,10.6458211 C6.81391435,10.6458211 6.41295994,10.6527833 5.99274143,10.5152805 C5.57252292,10.3776195 5.41400226,10.2413826 5.41400226,10.2413826 C5.16405877,10.8315843 5.66541504,11.8861941 6.53148311,12.6425384 C7.03626774,13.0836865 7.95849554,13.3602743 7.95849554,13.3602743 L6.51776968,13.3995156 C6.43679518,14.7566631 9.45440161,15.5628502 9.45440161,15.5628502 C8.56988572,16.2220406 7.54366445,16.6234727 6.44381515,16.6234727 C5.87372849,16.6234727 5.32290594,16.5410343 4.8,16.3896073 C6.25313324,17.5500736 8.12093432,18.3515137 10.1516639,18.2481889 C15.5394073,17.9734998 18.5808489,13.4848021 18.7256562,9.0764858 L18.7325129,9.08534673 C18.7325129,9.08534673 18.9850684,8.96335062 19.5246264,8.44008062 C20.0641844,7.91696885 20.4,7.30493125 20.4,7.30493125 C20.4,7.30493125 19.5930303,7.64496972 19.254276,7.73547787" id="Fill-6" fill="#FFFFFF"></path>
                    </g>
                </g>
            </g>
        </g>
    </g>
</svg>