<?xml version="1.0" encoding="UTF-8"?>
<svg width="24px" height="24px" viewBox="0 0 24 24" version="1.1" xmlns="http://www.w3.org/2000/svg" xmlns:xlink="http://www.w3.org/1999/xlink">
    <!-- Generator: sketchtool 51.2 (57519) - http://www.bohemiancoding.com/sketch -->
    <title>FD33F5DA-FF6A-4084-ABB9-25B7844D8517-1291-000002AE82555BFE</title>
    <desc>Created with sketchtool.</desc>
    <defs>
        <polygon id="path-1" points="8.78334307e-05 0.073088488 23.9929307 0.073088488 23.9929307 23.8919651 8.78334307e-05 23.8919651"></polygon>
    </defs>
    <g id="web-full" stroke="none" stroke-width="1" fill="none" fill-rule="evenodd">
        <g id="HOME---menu-project049" transform="translate(-1137.000000, -186.000000)">
            <g id="cabecera-HOME">
                <g id="Group-2" transform="translate(978.000000, 186.000000)">
                    <g id="instagram" transform="translate(159.000000, 0.000000)">
                        <g id="Page-1">
                            <g id="Group-3">
                                <mask id="mask-2" fill="white">
                                    <use xlink:href="#path-1"></use>
                                </mask>
                                <g id="Clip-2"></g>
                                <path d="M24.0000009,19.8207938 C24.0000009,22.0695598 22.1639237,23.8919832 19.8989189,23.8919832 L4.10134547,23.8919832 C1.836165,23.8919832 8.78334307e-05,22.0695598 8.78334307e-05,19.8207938 L8.78334307e-05,4.13769593 C8.78334307e-05,1.88910431 1.836165,0.0661576644 4.10134547,0.0661576644 L19.8989189,0.0661576644 C22.1639237,0.0661576644 24.0000009,1.88910431 24.0000009,4.13769593 L24.0000009,19.8207938 Z" id="Fill-1" fill="#00D0A2" mask="url(#mask-2)"></path>
                            </g>
                        </g>
                        <g id="Group-10" transform="translate(3.600000, 3.600000)" fill="#FFFFFF">
                            <path d="M5.18142333,1.18696475 C2.9592911,1.18696475 1.1515425,3.05056039 1.1515425,5.3411887 L1.1515425,11.1892022 C1.1515425,13.479983 2.9592911,15.3435787 5.18142333,15.3435787 L11.6187251,15.3435787 C13.8407093,15.3435787 15.6484579,13.479983 15.6484579,11.1892022 L15.6484579,5.3411887 C15.6484579,3.05056039 13.8407093,1.18696475 11.6187251,1.18696475 L5.18142333,1.18696475 Z M11.6187248,16.5308487 L5.18142321,16.5308487 C2.32454413,16.5308487 0,14.134492 0,11.1892023 L0,5.34118874 C0,2.39605156 2.32454413,0 5.18142321,0 L11.6187248,0 C14.4754559,0 16.8,2.39605156 16.8,5.34118874 L16.8,11.1892023 C16.8,14.134492 14.4754559,16.5308487 11.6187248,16.5308487 Z" id="Fill-13"></path>
                            <path d="M8.54782595,5.33629274 C6.62285541,5.33629274 5.0569042,6.85960865 5.0569042,8.73231427 C5.0569042,10.6045842 6.62285541,12.1280454 8.54782595,12.1280454 C10.4724979,12.1280454 12.0385984,10.6045842 12.0385984,8.73231427 C12.0385984,6.85960865 10.4724979,5.33629274 8.54782595,5.33629274 M8.54782591,13.2579709 C5.98229327,13.2579709 3.8956521,11.227706 3.8956521,8.73231417 C3.8956521,6.23648673 5.98229327,4.20680265 8.54782591,4.20680265 C11.11306,4.20680265 13.1999997,6.23648673 13.1999997,8.73231417 C13.1999997,11.227706 11.11306,13.2579709 8.54782591,13.2579709" id="Fill-15"></path>
                            <path d="M13.8118577,3.53148283 C13.8118577,4.05437984 13.3759952,4.47867508 12.8381705,4.47867508 C12.3001952,4.47867508 11.8640316,4.05437984 11.8640316,3.53148283 C11.8640316,3.00814629 12.3001952,2.58385105 12.8381705,2.58385105 C13.3759952,2.58385105 13.8118577,3.00814629 13.8118577,3.53148283" id="Fill-17"></path>
                        </g>
                    </g>
                </g>
            </g>
        </g>
    </g>
</svg>